# AST/ASF file generated using VICON BodyLanguage
# -----------------------------------------------
:version 1.10
:name VICON
:units
  mass 1.0
  length 0.45
  angle deg
:documentation
   .ast/.asf automatically generated from VICON data using
   VICON BodyBuilder and BodyLanguage model FoxedUp or BRILLIANT.MOD
:root
   order TX TY TZ RX RY RZ
   axis XYZ
   position 0 0 0  
   orientation 0 0 0 
:bonedata
  begin
     id 1 
     name lhipjoint
     direction 0.567725 -0.736092 0.368589 
     length 2.42353 
     axis 0 0 0  XYZ
  end
  begin
     id 2 
     name lfemur
     direction 0.34202 -0.939693 0  
     length 7.24894  
     axis 0 0 20  XYZ
    dof rx ry rz
    limits (-160.0 20.0)
           (-70.0 70.0)
           (-60.0 70.0)
  end
  begin
     id 3 
     name ltibia
     direction 0.34202 -0.939693 0   
     length 7.6997   
     axis 0 0 20   XYZ
    dof rx
    limits (-10.0 170.0)
  end
  begin
     id 4 
     name lfoot
     direction 0.100767 -0.276854 0.955614   
     length 2.37556   
     axis -90 7.62852e-016 20   XYZ
    dof rx rz
    limits (-45.0 90.0)
           (-70.0 20.0)
  end
  begin
     id 5 
     name ltoes
     direction 1.53592e-011 -4.21894e-011 1   
     length 1.18363   
     axis -90 7.62852e-016 20   XYZ
    dof rx
    limits (-90.0 20.0)
  end
  begin
     id 6 
     name rhipjoint
     direction -0.556459 -0.742938 0.372017   
     length 2.4012  
     axis 0 0 0  XYZ 
  end
  begin
     id 7 
     name rfemur
     direction -0.34202 -0.939693 0   
     length 7.5119   
     axis 0 0 -20   XYZ
    dof rx ry rz
    limits (-160.0 20.0)
           (-70.0 70.0)
           (-70.0 60.0)
  end
  begin
     id 8 
     name rtibia
     direction -0.34202 -0.939693 0   
     length 7.50155   
     axis 0 0 -20   XYZ
    dof rx
    limits (-10.0 170.0)
 end
 begin
     id 9 
     name rfoot
     direction -0.118427 -0.325376 0.938139   
     length 2.32487  
     axis -90 -7.62852e-016 -20   XYZ
    dof rx rz
    limits (-45.0 90.0)
           (-20.0 70.0)
  end
  begin
     id 10 
     name rtoes
     direction -1.53525e-011 -4.21868e-011 1   
     length 1.15233   
     axis -90 -7.62852e-016 -20   XYZ
    dof rx
    limits (-90.0 20.0)
  end
  begin
     id 11 
     name lowerback
     direction 0.0287568 0.999577 -0.00434502   
     length 2.15243   
     axis 0 0 0   XYZ
    dof rx ry rz
    limits (-20.0 45.0)
           (-30.0 30.0)
           (-30.0 30.0)
  end
  begin
     id 12 
     name upperback
     direction 0.0294009 0.99956 0.00404628   
     length 2.15427   
     axis 0 0 0   XYZ
    dof rx ry rz
    limits (-20.0 45.0)
           (-30.0 30.0)
           (-30.0 30.0)
  end
  begin
     id 13 
     name thorax
     direction 0.0151014 0.999868 0.0059419   
     length 2.14898   
     axis 0 0 0   XYZ
    dof rx ry rz
    limits (-20.0 45.0)
           (-30.0 30.0)
           (-30.0 30.0)
  end
  begin
     id 14 
     name lowerneck
     direction -0.0249197 0.989906 0.139515   
     length 1.6861   
     axis 0 0 0   XYZ
    dof rx ry rz
    limits (-20.0 45.0)
           (-30.0 30.0)
           (-30.0 30.0)
  end
  begin
     id 15 
     name upperneck
     direction 0.0438463 0.988795 -0.142693   
     length 1.71276   
     axis 0 0 0   XYZ
    dof rx ry rz
    limits (-20.0 45.0)
           (-30.0 30.0)
           (-30.0 30.0)
  end
  begin
     id 16
     name head
     direction 0.0148499 0.997845 -0.0639186  
     length 1.7209  
     axis 0 0 0   XYZ
    dof rx ry rz
    limits (-20.0 45.0)
           (-30.0 30.0)
           (-30.0 30.0)
  end
  begin
     id 17 
     name lclavicle
     direction 0.940298 0.323464 -0.105876  
     length 3.9048  
     axis 0 0 0   XYZ
    dof ry rz
    limits (-20.0 10.0)
           (0.0 20.0)
  end
  begin
     id 18 
     name lhumerus
     direction 1 -4.48954e-011 -4.9675e-028   
     length 4.6851   
     axis 180 -30 -90   XYZ
    dof rx ry rz
    limits (-60.0 90.0)
           (-90.0 90.0)
           (-90.0 90.0)
  end
  begin
     id 19
     name lradius
     direction 1 -4.48992e-011 -1.03359e-026   
     length 3.39626   
     axis 180 -30 -90   XYZ
    dof rx
    limits (-10.0 170.0)
  end
  begin
     id 20
     name lwrist
     direction 1 -4.48906e-011 -1.67336e-026   
     length 1.69813   
     axis 9.90442e-015 90 90   XYZ
    dof ry
    limits (-180.0 0.0)
 end
  begin
     id 21 
     name lhand
     direction 1 -4.49006e-011 -3.34673e-026   
     length 0.486078   
     axis 2.1355e-014 90 90   XYZ
    dof rx rz
    limits (-90.0 90.0)
           (-45.0 45.0)
  end
  begin
     id 22 
     name lfingers
     direction 1 -4.48992e-011 -6.69345e-026   
     length 0.391889   
     axis 4.27099e-014 90 90   XYZ
    dof rx
    limits (0.0 90.0)
  end
  begin
     id 23
     name lthumb
     direction 0.707107 -6.34926e-011 0.707107   
     length 0.562676   
     axis -90 45 2.85299e-015   XYZ
    dof rx rz
    limits (-45.0 45.0)
           (-45.0 45.0)
  end
  begin
     id 24 
     name rclavicle
     direction -0.882459 0.414895 -0.221648   
     length 3.44646  
     axis 0 0 0   XYZ 
    dof ry rz
    limits (-10.0 20.0)
           (-20.0 0.0)
  end
  begin
     id 25 
     name rhumerus
     direction -1 -4.48962e-011 -2.37984e-027  
     length 5.55576   
     axis 180 30 90   XYZ
    dof rx ry rz
    limits (-90.0 60.0)
           (-90.0 90.0)
           (-90.0 90.0)
  end
  begin
     id 26 
     name rradius
     direction -1 -4.48982e-011 -6.86791e-027   
     length 3.32774   
     axis 180 30 90   XYZ
    dof rx
    limits (-10.0 170.0)
  end
  begin
     id 27 
     name rwrist
     direction -1 -4.48961e-011 -1.67336e-026   
     length 1.66387   
     axis 9.90442e-015 -90 -90   XYZ
    dof ry
    limits (-180.0 0.0)
  end
  begin
     id 28
     name rhand
     direction -1 -4.4897e-011 -3.34673e-026   
     length 0.507628   
     axis 2.1355e-014 -90 -90   XYZ
    dof rx rz
    limits (-90.0 90.0)
           (-45.0 45.0)
  end
  begin
     id 29
     name rfingers
     direction -1 -4.48854e-011 -6.69345e-026   
     length 0.409263   
     axis 4.27099e-014 -90 -90   XYZ
    dof rx
    limits (0.0 90.0)
  end
  begin
     id 30
     name rthumb
     direction -0.707107 -6.34913e-011 0.707107   
     length 0.587622   
     axis -90 -45 -2.85299e-015   XYZ
    dof rx rz
    limits (-45.0 45.0)
           (-45.0 45.0)
  end
:hierarchy
  begin
    root lhipjoint rhipjoint lowerback
    lhipjoint lfemur
    lfemur ltibia
    ltibia lfoot
    lfoot ltoes
    rhipjoint rfemur
    rfemur rtibia
    rtibia rfoot
    rfoot rtoes
    lowerback upperback
    upperback thorax
    thorax lowerneck lclavicle rclavicle
    lowerneck upperneck
    upperneck head
    lclavicle lhumerus
    lhumerus lradius
    lradius lwrist
    lwrist lhand lthumb
    lhand lfingers
    rclavicle rhumerus
    rhumerus rradius
    rradius rwrist
    rwrist rhand rthumb
    rhand rfingers
  end

#!OML:ASF E:\motion texture\Top Level 1\Subject 1\Session 1\male.ASF
:FULLY-SPECIFIED
:DEGREES
95
root 40.5362 17.2085 4.72691 114.058 -83.7502 -102.531
lowerback -0.986375 2.42798 2.11123
upperback -1.62581 3.21548 2.134
thorax -1.12043 1.58153 1.00547
lowerneck -16.7986 -0.266545 -7.20327
upperneck 8.92748 0.528407 5.68046
head 5.38362 0.428698 3.0153
rclavicle 1.76484e-014 -5.71506e-015
rhumerus -14.6009 26.7938 -82.6841
rradius 70.5189
rwrist 15.4599
rhand -20.0068 -22.5563
rfingers 7.12502
rthumb 6.33325 -52.4416
lclavicle 1.76484e-014 -5.71506e-015
lhumerus -23.3182 -8.65428 96.1252
lradius 61.8459
lwrist -14.1206
lhand -16.1512 22.8082
lfingers 7.12502
lthumb 10.0543 52.548
rfemur -7.18634 -1.87141 27.4196
rtibia 31.6819
rfoot -17.1214 -9.32927
rtoes -0.967202
lfemur -40.2938 -4.08519 -5.31782
ltibia 24.61
lfoot -1.28819 2.61967
ltoes -0.944553
96
root 40.4147 17.2051 4.75113 113.215 -83.9088 -101.669
lowerback -0.897612 2.40823 2.05872
upperback -1.63891 3.19334 2.13451
thorax -1.18639 1.57081 1.03072
lowerneck -16.7825 -0.218716 -7.15915
upperneck 8.82856 0.59756 5.5732
head 5.34558 0.45641 2.97862
rclavicle -7.65321e-015 -1.70955e-014
rhumerus -14.178 27.047 -82.4008
rradius 71.041
rwrist 15.473
rhand -20.1623 -22.5311
rfingers 7.12502
rthumb 6.18317 -52.4208
lclavicle -7.65321e-015 -1.70955e-014
lhumerus -22.8625 -9.16258 96.2575
lradius 62.1509
lwrist -14.1265
lhand -16.2781 22.8006
lfingers 7.12502
lthumb 9.93188 52.5464
rfemur -8.02094 -2.064 26.9672
rtibia 33.0763
rfoot -16.7071 -9.3516
rtoes -1.9984
lfemur -40.3092 -4.14722 -5.68352
ltibia 25.112
lfoot -1.27615 2.09022
ltoes -0.581707
97
root 40.2932 17.2025 4.77625 112.212 -84.0675 -100.651
lowerback -0.796903 2.3852 2.01495
upperback -1.64952 3.16702 2.14294
thorax -1.25645 1.5579 1.05883
lowerneck -16.7628 -0.167771 -7.10744
upperneck 8.72208 0.671809 5.44309
head 5.30448 0.485232 2.93374
rclavicle -2.42393e-014 3.97569e-015
rhumerus -13.761 27.2959 -82.1104
rradius 71.5331
rwrist 15.4738
rhand -20.3201 -22.5175
rfingers 7.12502
rthumb 6.03081 -52.4116
lclavicle -2.42393e-014 3.97569e-015
lhumerus -22.4073 -9.65848 96.3824
lradius 62.4429
lwrist -14.122
lhand -16.4015 22.792
lfingers 7.12502
lthumb 9.81281 52.5433
rfemur -8.91015 -2.23055 26.5037
rtibia 34.4531
rfoot -16.2788 -9.36855
rtoes -3.01548
lfemur -40.3284 -4.17491 -6.07531
ltibia 25.663
lfoot -1.27747 1.53451
ltoes -0.232649
98
root 40.1719 17.2007 4.80224 111.002 -84.2296 -99.431
lowerback -0.685505 2.3583 1.97729
upperback -1.65582 3.1357 2.15858
thorax -1.32809 1.54246 1.09068
lowerneck -16.7494 -0.11282 -7.05809
upperneck 8.61861 0.752948 5.30584
head 5.26508 0.516914 2.8877
rclavicle 3.17186e-014 1.46107e-014
rhumerus -13.3495 27.5404 -81.8109
rradius 71.9954
rwrist 15.4606
rhand -20.4889 -22.515
rfingers 7.12502
rthumb 5.86784 -52.4137
lclavicle 3.17186e-014 1.46107e-014
lhumerus -21.9511 -10.1433 96.5004
lradius 62.7215
lwrist -14.1092
lhand -16.5256 22.7877
lfingers 7.12502
lthumb 9.69306 52.5447
rfemur -9.8473 -2.38045 26.0231
rtibia 35.7977
rfoot -15.8376 -9.3713
rtoes -3.99217
lfemur -40.3529 -4.16848 -6.49766
ltibia 26.2625
lfoot -1.29073 0.951978
ltoes 0.104808
99
root 40.0507 17.1994 4.82895 109.548 -84.3929 -97.9731
lowerback -0.561135 2.32666 1.94719
upperback -1.65758 3.09831 2.1816
thorax -1.4023 1.52392 1.12559
lowerneck -16.7325 -0.0556977 -7.00171
upperneck 8.50578 0.837881 5.14591
head 5.22222 0.549105 2.83349
rclavicle 9.16894e-015 -4.77083e-015
rhumerus -12.9415 27.782 -81.5044
rradius 72.4247
rwrist 15.4372
rhand -20.6624 -22.5138
rfingers 7.12502
rthumb 5.70026 -52.4171
lclavicle 9.16894e-015 -4.77083e-015
lhumerus -21.4945 -10.6153 96.6102
lradius 62.9867
lwrist -14.0864
lhand -16.6463 22.7853
lfingers 7.12502
lthumb 9.57658 52.5477
rfemur -10.8259 -2.51716 25.526
rtibia 37.1009
rfoot -15.3919 -9.36264
rtoes -4.92015
lfemur -40.3823 -4.12762 -6.9464
ltibia 26.9084
lfoot -1.31479 0.346249
ltoes 0.444614
100
root 39.9296 17.1986 4.85641 107.845 -84.5546 -96.2762
lowerback -0.424235 2.29137 1.9265
upperback -1.65286 3.05629 2.21197
thorax -1.4767 1.50299 1.1626
lowerneck -16.7181 0.0044125 -6.94385
upperneck 8.39239 0.928086 4.97149
head 5.17957 0.582961 2.77494
rclavicle -2.1916e-014 -1.19271e-014
rhumerus -12.537 28.0227 -81.1902
rradius 72.8216
rwrist 15.4017
rhand -20.8442 -22.519
rfingers 7.12502
rthumb 5.52477 -52.427
lclavicle -2.1916e-014 -1.19271e-014
lhumerus -21.037 -11.074 96.7119
lradius 63.2372
lwrist -14.053
lhand -16.7619 22.7853
lfingers 7.12502
lthumb 9.46507 52.5527
rfemur -11.8354 -2.64056 25.0116
rtibia 38.3553
rfoot -14.9482 -9.35296
rtoes -5.78153
lfemur -40.4104 -4.0517 -7.41855
ltibia 27.5949
lfoot -1.34883 -0.279485
ltoes 0.776015
101
root 39.8092 17.1981 4.88425 105.745 -84.7105 -94.1891
lowerback -0.271789 2.24996 1.91618
upperback -1.64396 3.00656 2.25193
thorax -1.55543 1.47807 1.20337
lowerneck -16.7066 0.0662917 -6.88977
upperneck 8.2792 1.02197 4.79121
head 5.13746 0.618162 2.71553
rclavicle -2.49972e-014 -1.13307e-014
rhumerus -12.1383 28.2601 -80.8682
rradius 73.1864
rwrist 15.3572
rhand -21.0327 -22.5302
rfingers 7.12502
rthumb 5.34278 -52.4429
lclavicle -2.49972e-014 -1.13307e-014
lhumerus -20.5789 -11.5224 96.8069
lradius 63.4729
lwrist -14.0076
lhand -16.8733 22.787
lfingers 7.12502
lthumb 9.35764 52.5593
rfemur -12.873 -2.75795 24.4866
rtibia 39.5542
rfoot -14.507 -9.34875
rtoes -6.58187
lfemur -40.4494 -3.94081 -7.90736
ltibia 28.3262
lfoot -1.39347 -0.930122
ltoes 1.09457
102
root 39.6892 17.1977 4.91233 103.249 -84.8551 -91.715
lowerback -0.106739 2.20341 1.91756
upperback -1.62935 2.95033 2.30098
thorax -1.63515 1.44976 1.24689
lowerneck -16.6923 0.128545 -6.83338
upperneck 8.15929 1.11731 4.5943
head 5.09308 0.653054 2.65052
rclavicle -1.42628e-014 -7.55382e-015
rhumerus -11.7433 28.4968 -80.5389
rradius 73.518
rwrist 15.3043
rhand -21.2294 -22.5589
rfingers 7.12502
rthumb 5.15281 -52.4763
lclavicle -1.42628e-014 -7.55382e-015
lhumerus -20.1175 -11.9598 96.8933
lradius 63.692
lwrist -13.9494
lhand -16.9748 22.7865
lfingers 7.12502
lthumb 9.25968 52.5632
rfemur -13.9334 -2.87163 23.9508
rtibia 40.7035
rfoot -14.0741 -9.34497
rtoes -7.31371
lfemur -40.4973 -3.79412 -8.40716
ltibia 29.0975
lfoot -1.44759 -1.59751
ltoes 1.39351
103
root 39.5698 17.197 4.94043 100.327 -84.9828 -88.8249
lowerback 0.071589 2.15207 1.93104
upperback -1.60906 2.88817 2.35936
thorax -1.71627 1.41832 1.29322
lowerneck -16.6782 0.191403 -6.77925
upperneck 8.03795 1.21422 4.39099
head 5.0485 0.688291 2.58401
rclavicle -6.41081e-015 2.38542e-015
rhumerus -11.3494 28.7305 -80.2042
rradius 73.8144
rwrist 15.2442
rhand -21.4338 -22.5999
rfingers 7.12502
rthumb 4.95551 -52.522
lclavicle -6.41081e-015 2.38542e-015
lhumerus -19.6521 -12.3889 96.9705
lradius 63.8926
lwrist -13.8774
lhand -17.0727 22.7958
lfingers 7.12502
lthumb 9.16518 52.5766
rfemur -15.0088 -2.97971 23.4074
rtibia 41.8052
rfoot -13.6659 -9.32293
rtoes -7.96789
lfemur -40.5548 -3.609 -8.91325
ltibia 29.9072
lfoot -1.51595 -2.27922
ltoes 1.65251
104
root 39.4511 17.1959 4.96841 96.9717 -85.085 -85.5144
lowerback 0.265936 2.09649 1.95983
upperback -1.58275 2.82103 2.42744
thorax -1.79985 1.38414 1.34092
lowerneck -16.6618 0.252438 -6.73067
upperneck 7.91375 1.30968 4.18399
head 5.00303 0.722488 2.5171
rclavicle -1.04859e-014 1.74931e-014
rhumerus -10.959 28.9623 -79.8653
rradius 74.0738
rwrist 15.179
rhand -21.6494 -22.6443
rfingers 7.12502
rthumb 4.74729 -52.5711
lclavicle -1.04859e-014 1.74931e-014
lhumerus -19.1834 -12.81 97.0385
lradius 64.0749
lwrist -13.7916
lhand -17.1634 22.8036
lfingers 7.12502
lthumb 9.07768 52.5883
rfemur -16.0847 -3.08215 22.8602
rtibia 42.847
rfoot -13.2878 -9.2812
rtoes -8.54627
lfemur -40.6189 -3.38398 -9.41881
ltibia 30.753
lfoot -1.60018 -2.97301
ltoes 1.86113
105
root 39.333 17.1942 4.99619 93.186 -85.1563 -81.7904
lowerback 0.478324 2.03738 2.00337
upperback -1.54902 2.75 2.50491
thorax -1.88563 1.34778 1.38998
lowerneck -16.639 0.312451 -6.67783
upperneck 7.78462 1.40354 3.96278
head 4.9555 0.755141 2.4448
rclavicle 4.96962e-016 1.19271e-014
rhumerus -10.573 29.1916 -79.521
rradius 74.2989
rwrist 15.1077
rhand -21.8724 -22.694
rfingers 7.12502
rthumb 4.53199 -52.6255
lclavicle 4.96962e-016 1.19271e-014
lhumerus -18.7075 -13.2261 97.0981
lradius 64.2354
lwrist -13.693
lhand -17.2427 22.8084
lfingers 7.12502
lthumb 9.00116 52.5963
rfemur -17.1445 -3.18173 22.3082
rtibia 43.8111
rfoot -12.9468 -9.22863
rtoes -9.06316
lfemur -40.687 -3.12311 -9.91994
ltibia 31.6321
lfoot -1.69974 -3.67294
ltoes 2.0133
106
root 39.2156 17.1916 5.0236 89.0122 -85.1893 -77.6979
lowerback 0.710844 1.97472 2.06296
upperback -1.50774 2.67528 2.59125
thorax -1.97457 1.30928 1.43918
lowerneck -16.6109 0.371441 -6.62719
upperneck 7.6516 1.49609 3.73711
head 4.90632 0.786905 2.3713
rclavicle -2.83268e-015 -5.56597e-015
rhumerus -10.1874 29.4168 -79.174
rradius 74.4866
rwrist 15.0316
rhand -22.1021 -22.7465
rfingers 7.12502
rthumb 4.31016 -52.6827
lclavicle -2.83268e-015 -5.56597e-015
lhumerus -18.2254 -13.6368 97.1484
lradius 64.3753
lwrist -13.5838
lhand -17.3108 22.8133
lfingers 7.12502
lthumb 8.93542 52.6041
rfemur -18.1726 -3.28561 21.7533
rtibia 44.6822
rfoot -12.6426 -9.15985
rtoes -9.52888
lfemur -40.7576 -2.82552 -10.4114
ltibia 32.5418
lfoot -1.81581 -4.37656
ltoes 2.12068
107
root 39.099 17.188 5.0505 84.5482 -85.1782 -73.3353
lowerback 0.962672 1.90979 2.13791
upperback -1.45885 2.59867 2.68562
thorax -2.06619 1.26953 1.48812
lowerneck -16.5779 0.427548 -6.57416
upperneck 7.51609 1.58445 3.50126
head 4.85621 0.816123 2.29384
rclavicle 8.24956e-015 2.06736e-014
rhumerus -9.8042 29.6364 -78.8258
rradius 74.6379
rwrist 14.9483
rhand -22.3368 -22.8056
rfingers 7.12502
rthumb 4.08351 -52.7462
lclavicle 8.24956e-015 2.06736e-014
lhumerus -17.7358 -14.0443 97.189
lradius 64.493
lwrist -13.4647
lhand -17.367 22.82
lfingers 7.12502
lthumb 8.88123 52.6131
rfemur -19.1595 -3.39292 21.1973
rtibia 45.4539
rfoot -12.3794 -9.07769
rtoes -9.94257
lfemur -40.8318 -2.49071 -10.8892
ltibia 33.4799
lfoot -1.94942 -5.0826
ltoes 2.19536
